# xmcd
#
# Track frame offsets:
#	150
#	21989
#	40354
#	65626
#	71537
#	89604
#	102270
#	114295
#	135788
#	156951
#	176220
#	191157
#	209066
#	226963
#	251531
#	276293
#
# Disc length: 4073 seconds
#
# Revision: 0
# Processed by: cddbd v1.5.1PL2 Copyright (c) Steve Scherf et al.
# Submitted via: dBpowerAMP V4.0
#
DISCID=ed0fe710
DTITLE=Rec and Rapresent - Isiklikult
DYEAR=2005
DGENRE=Rap
TTITLE0=Rec and Rapresent - Record and represent
TTITLE1=Rec - Jalutuskäik
TTITLE2=Rapresent - Varjatud reaalsus
TTITLE3=Rec - Värvilised müürid intro
TTITLE4=Rec and TDrop - Värvilised müürid
TTITLE5=Rec - Disstsipliin: Kuhu koes on maetud?
TTITLE6=Rapresent - Disstsipliin: Ussisõnad
TTITLE7=Rapresent and Naya Gaz - Queen city
TTITLE8=Razorblade - Teadvuslikult tõestatud
TTITLE9=Rapresent and Rec - Mehed ei nuta
TTITLE10=Rapresent and Rec - Jälle algab kõik
TTITLE11=Rapresent - Kelmid ja pühakud
TTITLE12=Rec and Rapresent - Allikas
TTITLE13=Rapresent - Superstaaridele
TTITLE14=Rec - Pilvelõhkujad
TTITLE15=Rapresent, Mig-L, Skilla, Rec, Misti-C, Razorblade and Wst - Sülita südamelt
EXTD=
EXTT0=
EXTT1=
EXTT2=
EXTT3=
EXTT4=
EXTT5=
EXTT6=
EXTT7=
EXTT8=
EXTT9=
EXTT10=
EXTT11=
EXTT12=
EXTT13=
EXTT14=
EXTT15=
PLAYORDER=
